HIERARCHY
ROOT Hips
{
	OFFSET -0.001795 -0.223333 0.028219
	CHANNELS 6 Xposition Yposition Zposition Zrotation Yrotation Xrotation 
	JOINT LeftUpLeg
	{
		OFFSET 0.069520 -0.091406 -0.006815
		CHANNELS 3 Zrotation Yrotation Xrotation
		JOINT LeftLeg
		{
			OFFSET 0.034277 -0.375199 -0.004496
			CHANNELS 3 Zrotation Yrotation Xrotation
			JOINT LeftFoot
			{
				OFFSET -0.013596 -0.397961 -0.043693
				CHANNELS 3 Zrotation Yrotation Xrotation
				JOINT LeftToe
				{
					OFFSET 0.026358 -0.055791 0.119288
					CHANNELS 3 Zrotation Yrotation Xrotation
					End Site
					{
						OFFSET 0.000000 0.000000 0.000000
					}
				}
			}
		}
	}
	JOINT RightUpLeg
	{
		OFFSET -0.067670 -0.090522 -0.004320
		CHANNELS 3 Zrotation Yrotation Xrotation
		JOINT RightLeg
		{
			OFFSET -0.038290 -0.382569 -0.008850
			CHANNELS 3 Zrotation Yrotation Xrotation
			JOINT RightFoot
			{
				OFFSET 0.015774 -0.398415 -0.042312
				CHANNELS 3 Zrotation Yrotation Xrotation
				JOINT RightToe
				{
					OFFSET -0.025372 -0.048144 0.123348
					CHANNELS 3 Zrotation Yrotation Xrotation
					End Site
					{
						OFFSET 0.000000 0.000000 0.000000
					}
				}
			}
		}
	}
	JOINT Spine
	{
		OFFSET -0.002533 0.108963 -0.026696
		CHANNELS 3 Zrotation Yrotation Xrotation
		JOINT Spine1
		{
			OFFSET 0.005487 0.135180 0.001092
			CHANNELS 3 Zrotation Yrotation Xrotation
			JOINT Spine2
			{
				OFFSET 0.001457 0.052922 0.025425
				CHANNELS 3 Zrotation Yrotation Xrotation
				JOINT Neck
				{
					OFFSET -0.002778 0.213870 -0.042857
					CHANNELS 3 Zrotation Yrotation Xrotation
					JOINT Head
					{
						OFFSET 0.005152 0.064970 0.051349
						CHANNELS 3 Zrotation Yrotation Xrotation
						End Site
						{
							OFFSET 0.000000 0.000000 0.000000
						}
					}
				}
				JOINT LeftShoulder
				{
					OFFSET 0.078845 0.121749 -0.034090
					CHANNELS 3 Zrotation Yrotation Xrotation
					JOINT LeftArm
					{
						OFFSET 0.090977 0.030469 -0.008868
						CHANNELS 3 Zrotation Yrotation Xrotation
						JOINT LeftForeArm
						{
							OFFSET 0.259612 -0.012772 -0.027456
							CHANNELS 3 Zrotation Yrotation Xrotation
							JOINT LeftHand
							{
								OFFSET 0.249234 0.008986 -0.001171
								CHANNELS 3 Zrotation Yrotation Xrotation
								End Site
								{
									OFFSET 0.000000 0.000000 0.000000
								}
							}
						}
					}
				}
				JOINT RightShoulder
				{
					OFFSET -0.081759 0.118833 -0.038615
					CHANNELS 3 Zrotation Yrotation Xrotation
					JOINT RightArm
					{
						OFFSET -0.096012 0.032551 -0.009143
						CHANNELS 3 Zrotation Yrotation Xrotation
						JOINT RightForeArm
						{
							OFFSET -0.253742 -0.013329 -0.021401
							CHANNELS 3 Zrotation Yrotation Xrotation
							JOINT RightHand
							{
								OFFSET -0.255298 0.007772 -0.005559
								CHANNELS 3 Zrotation Yrotation Xrotation
								End Site
								{
									OFFSET 0.000000 0.000000 0.000000
								}
							}
						}
					}
				}
			}
		}
	}
}
MOTION
Frames: 10
Frame Time: 0.050000
0.000000 0.938669 0.000000 0.859151 -1.593743 2.295276 0.649830 0.238821 2.847134 -0.120763 0.180194 -5.013081 2.726643 7.276398 5.174774 0.000000 0.000000 0.000000 -0.861331 0.305777 -3.038393 0.160472 0.050457 1.712797 -2.136500 -6.160822 1.957958 0.000000 0.000000 0.000000 6.198531 0.086468 -1.912997 -0.897366 0.422173 0.571197 -2.813128 2.382267 6.820483 6.036264 -2.661419 -13.965327 0.000000 0.000000 0.000000 -17.797707 -10.199852 3.205954 -30.638965 -1.739066 -3.136781 -1.816038 -19.810972 0.990826 0.000000 0.000000 0.000000 14.030700 4.038440 1.129910 33.347784 1.883958 -2.974824 0.721618 23.977223 0.991619 0.000000 0.000000 0.000000 
-0.000107 0.937306 0.000140 0.648843 -1.313607 2.888829 0.838451 0.273381 3.368920 -0.043490 0.240894 -6.915904 2.866490 7.514263 5.043306 0.000000 0.000000 0.000000 -0.436504 0.345462 -3.465686 0.000485 0.055521 1.381082 -2.615673 -7.440176 2.393046 0.000000 0.000000 0.000000 7.175165 0.144700 -2.605109 -1.447728 0.687514 0.401200 -3.425109 2.903032 7.432819 6.767892 -2.714864 -16.232837 0.000000 0.000000 0.000000 -16.414122 -10.354810 3.141588 -31.515623 -2.181749 -3.113832 -1.285720 -19.316169 0.859467 0.000000 0.000000 0.000000 13.093927 2.858382 0.741468 34.968039 1.351713 -3.333563 1.372205 23.365174 1.129075 0.000000 0.000000 0.000000 
-0.000239 0.936760 0.000188 0.588652 -0.771119 3.522978 1.226312 0.198629 2.740505 -0.124111 0.208907 -5.891155 2.691732 6.874394 3.845770 0.000000 0.000000 0.000000 -0.300804 0.446371 -4.493247 0.020650 0.079580 2.049763 -2.447190 -6.689668 1.375378 0.000000 0.000000 0.000000 7.560122 0.163505 -2.943709 -0.947718 0.470985 -1.402705 -4.162991 3.287603 8.889640 6.848559 -2.624858 -16.818932 0.000000 0.000000 0.000000 -15.775958 -10.098543 2.899152 -32.473557 -1.536647 -3.402365 -3.021957 -19.645829 1.149246 0.000000 0.000000 0.000000 13.576199 3.028329 0.986963 34.339397 -0.020523 -3.748393 2.883192 25.335966 1.578538 0.000000 0.000000 0.000000 
-0.000522 0.936440 0.000388 0.606254 -0.332787 3.897692 1.261875 0.175884 2.519459 -0.484821 0.227001 -5.837645 2.906810 7.195722 3.481866 0.000000 0.000000 0.000000 -0.221580 0.494020 -4.964674 0.590828 0.000324 1.779885 -2.731786 -7.551295 1.921042 0.000000 0.000000 0.000000 7.581083 0.246125 -3.821136 -0.962852 0.463056 -0.362845 -4.106198 3.068955 8.443458 6.727077 -2.543704 -16.756183 0.000000 0.000000 0.000000 -16.387607 -10.242942 2.927785 -32.727242 -1.238354 -3.456117 -2.307125 -19.072037 0.999283 0.000000 0.000000 0.000000 13.044107 2.955236 0.947390 34.505810 -0.990693 -3.953863 3.035055 24.927034 1.577311 0.000000 0.000000 0.000000 
-0.000954 0.936467 0.000741 0.641997 -0.169127 4.093267 1.215784 0.179608 2.555708 -0.661721 0.244974 -6.128946 2.831942 6.992559 3.267820 0.000000 0.000000 0.000000 -0.219907 0.521814 -5.245087 0.426670 0.037128 2.265341 -2.723915 -7.394340 1.494117 0.000000 0.000000 0.000000 7.612970 0.234645 -3.766981 -0.656251 0.328212 -0.864346 -4.414540 3.450726 8.665811 7.147891 -2.937110 -15.624356 0.000000 0.000000 0.000000 -16.425525 -10.617875 2.993684 -33.157640 -0.595572 -3.628032 -3.607185 -20.024729 1.258787 0.000000 0.000000 0.000000 12.908923 2.337875 0.744531 34.456441 -1.511684 -4.113028 4.244891 26.439454 1.981755 0.000000 0.000000 0.000000 
-0.001507 0.936295 0.001396 0.477735 0.047505 4.402164 1.046410 0.157723 2.220695 -0.028301 0.204353 -5.965198 2.939429 7.266550 3.480945 0.000000 0.000000 0.000000 -0.324708 0.534828 -5.384129 0.952602 -0.034736 2.069988 -2.819845 -7.656188 1.592114 0.000000 0.000000 0.000000 7.844871 0.272337 -4.179515 -0.631870 0.302962 -0.169101 -4.287645 3.172329 8.374167 6.545217 -2.557143 -15.671563 0.000000 0.000000 0.000000 -16.779164 -10.350398 2.877913 -33.910196 -0.494084 -3.727992 -3.296690 -20.485370 1.238188 0.000000 0.000000 0.000000 12.391193 2.653771 0.865437 35.169187 -2.044710 -4.283043 3.771200 26.690033 1.894114 0.000000 0.000000 0.000000 
-0.002393 0.936559 0.002355 0.682495 0.175077 4.440275 0.807155 0.170225 2.250511 -0.220771 0.215664 -5.994785 2.961589 7.401249 3.796914 0.000000 0.000000 0.000000 -0.449777 0.524957 -5.298305 1.087561 -0.045937 2.260875 -3.168538 -8.379948 1.221065 0.000000 0.000000 0.000000 7.768282 0.276047 -4.238090 -0.636498 0.308716 -0.346609 -4.423714 3.204336 8.727098 6.830874 -2.779107 -15.392278 0.000000 0.000000 0.000000 -17.435520 -10.483008 2.903799 -34.118473 0.202850 -3.932060 -3.431583 -21.604510 1.328287 0.000000 0.000000 0.000000 12.876544 2.600104 0.864358 35.174121 -2.397261 -4.410313 4.126136 27.006435 2.006644 0.000000 0.000000 0.000000 
-0.003748 0.936669 0.003761 0.622539 0.063258 4.387063 0.754807 0.154684 2.034821 -0.316076 0.202263 -5.386997 3.345767 8.164540 3.918966 0.000000 0.000000 0.000000 -0.220621 0.519123 -5.212573 1.341873 -0.066959 2.630679 -3.385847 -8.813760 0.907865 0.000000 0.000000 0.000000 7.869996 0.275962 -4.200318 -0.744576 0.360999 -0.419703 -4.377551 3.475116 9.053019 6.976908 -2.818776 -15.643379 0.000000 0.000000 0.000000 -17.781715 -10.493741 2.857403 -34.752778 0.606131 -4.120390 -3.451751 -22.970006 1.410106 0.000000 0.000000 0.000000 13.652233 2.356816 0.782864 35.285596 -2.193978 -4.423333 3.198618 26.886735 1.805462 0.000000 0.000000 0.000000 
-0.005807 0.936593 0.005691 0.599616 0.135037 4.351955 0.891662 0.125173 1.750716 -0.657538 0.201315 -4.630054 3.529948 8.417090 3.538027 0.000000 0.000000 0.000000 0.016659 0.495664 -4.949926 1.541377 -0.086608 2.866385 -3.595451 -9.285065 0.781284 0.000000 0.000000 0.000000 7.961193 0.287019 -4.285118 -0.750546 0.365910 -0.527192 -4.369887 3.530442 9.398457 6.988183 -2.812381 -15.719983 0.000000 0.000000 0.000000 -18.147552 -10.448038 2.807316 -35.625527 0.534631 -4.228958 -3.187527 -24.073604 1.420610 0.000000 0.000000 0.000000 14.048686 2.330049 0.791720 35.665548 -2.088728 -4.479501 2.528996 26.940512 1.671647 0.000000 0.000000 0.000000 
-0.008613 0.936362 0.008319 0.599533 0.030514 4.001049 1.218768 0.137475 2.041959 -0.892643 0.207386 -4.245561 3.781798 8.885143 3.498441 0.000000 0.000000 0.000000 0.453508 0.432131 -4.298848 1.468191 -0.073052 3.007780 -3.691877 -9.462246 0.585819 0.000000 0.000000 0.000000 7.872273 0.285435 -4.187165 -0.590686 0.291569 -0.543408 -4.396690 3.778214 9.608618 7.280581 -2.982462 -15.731312 0.000000 0.000000 0.000000 -18.535669 -10.438521 2.737966 -36.245108 0.891524 -4.404073 -3.105398 -25.451241 1.475382 0.000000 0.000000 0.000000 14.721847 2.146203 0.736258 35.649650 -1.579701 -4.388286 1.462467 26.497273 1.418398 0.000000 0.000000 0.000000 
